# xmcd
#
# Track frame offsets:
#	150
#	22304
#	40526
#	62684
#	85931
#	104848
#	126851
#	142927
#	165073
#	185115
#	186625
#	203358
#
# Disc length: 3023 seconds
#
# Revision: 0
# Processed by: cddbd v1.5.2PL0 Copyright (c) Steve Scherf et al.
# Submitted via: EasyCDDAExtractor 11.0.0.1
#
DISCID=a50bcd0c
DTITLE=ΛΑΖΟΠΟΥΛΟΥ ΙΝΑ - SHAKE IT
DYEAR=1999
DGENRE=ΛΑΪΚΑ
TTITLE0=Λαζοπούλου Ίνα_01 Για φαντάσου Shake It
TTITLE1=Λαζοπούλου Ίνα_02 Γιατί
TTITLE2=Λαζοπούλου Ίνα_03 Ένα
TTITLE3=Λαζοπούλου Ίνα_04 Ο αέρας που αναπνέω
TTITLE4=Λαζοπούλου Ίνα_05 Εσύ
TTITLE5=Λαζοπούλου Ίνα_06 Μάτια μου
TTITLE6=Λαζοπούλου Ίνα_07 Ότι καλύτερο
TTITLE7=Λαζοπούλου Ίνα_08 Εθισμός
TTITLE8=Λαζοπούλου Ίνα_09 Δεν ξέρεις
TTITLE9=Λαζοπούλου Ίνα_10 No laughin' now
TTITLE10=Λαζοπούλου Ίνα_11 We keep it hot
TTITLE11=Λαζοπούλου Ίνα_12 Every woman
EXTD=
EXTT0=
EXTT1=
EXTT2=
EXTT3=
EXTT4=
EXTT5=
EXTT6=
EXTT7=
EXTT8=
EXTT9=
EXTT10=
EXTT11=
PLAYORDER=
